<?xml version="1.0" encoding="UTF-8"?>
<svg id="Layer_2" data-name="Layer 2" xmlns="http://www.w3.org/2000/svg" viewBox="0 0 20.49 23.26">
  <defs>
    <style>
      .cls-1 {
        fill: #fff;
      }
    </style>
  </defs>
  <g id="Layer_1-2" data-name="Layer 1">
    <g>
      <path d="M3.83,10.75c.15.9,1.18,1.08,1.89,1.36.33.13.9.41,1.09.71.34.55-.1,1.15-.47,1.56-.25.28-.54.51-.83.74-.27.22-.53.45-.7.75-.21.35-.26.76-.21,1.16.05.37.17.74.32,1.08.73,1.62,1.78,1.33,2.12,2.37.05.14.16.42-.04.46-.14.03-.18,0-.33.08-.44.26-.33.8.02,1.09,1.16.89,2.46.38,2.84,0,.91.85,2.72,1.13,3.66.97.07-.01,1.3-.15.87,0s-.91.05-1.38.11c-.64.08-1.34.08-1.98,0-.1-.01-.69-.1-.68-.2s.22-.08.22-.08c.08-.18-1.19-.18-1.68-.04,0,0,.6.13.59.22s-1.8.21-2.43-.35c-.17-.15-.49-.34-1.25-.13-.23.06-.52.18-.5.27,0,.07,1.11-.31,1.1.16h-1.17c-.33,0-.52-.3-.7-.3-.23,0-.55.41-1.62.42-.06,0-.83.03-.83.03.09-.25.84-.2.87-.25-.36-.21-.63,0-1.15,0H0c.23-.42.8-.14,1.31-.22,2.22-.36,2.53-2.6,3.08-4.94.04-.18-.09-.39-.37-.16-.42.35-.69.92-.67,2-.02.1-.15.12-.21.04-.02-.03-.38-.48-.33-1.51.05-.93.77-1.41.2-1.27-.34.08-.81.4-1.01,1.11-.04.1-.08.37-.12.42-.13.16-.26-.19-.27-.43-.14-3.12,2.6-3.86,3.74-4.62,0,0,.54-.29.34-.54-.11-.13-.35-.15-.46-.22-.06-.04-.03-.29-.09-.33-.08-.06-.41.03-.48-.08s.04-.31-.1-.37c-.12-.05-.26.01-.37-.04-.55-.3-.36-1.02-.36-1.02h0Z"/>
      <path d="M15.69,2.3c-.06.05-.19.09-.28-.02-.15-.19.04-.51.33-.39-.02-.18-.07-.29.09-.42.28-.22.81-.11.81.28,0,.06-.01.17-.09.16-.11-.01-.07-.17-.18-.19-.08-.01-.14.02-.16.1-.07.32.44.6.67.39.06-.05.09-.16.16-.2.09-.05.25-.03.28.08.06.31-.25.38-.26.6,0,.28.34.33.39.19s-.04-.27-.04-.27c.15-.03.3.12.36.32s.06.98-.12,1.07-.76-.18-.98-.4c-.14-.13-.29-.38-.16-.48,0,0,.09.1.27.13s.05-.44-.23-.49c-.51-.09-.81.58-1.39.26-.31-.17-.4-.58-.57-.86-.12.04-.11.59-.71.8-.35.1-.6-.03-.63-.23.23.21.53.04.53.04.38-.22.45-.67.31-.92-.07-.13-.27-.27-.43-.2.35.48-.35,1.02-.86.82-.31-.11-.61-.52-.4-.83.04-.06.13-.15.13-.15-.31-.16-.4.16-.62.31-.34.28-.82.23-1.13-.08-.17-.17-.15-.51-.3-.67-.57-.68-1.89.27-.98.45-.3.63-1.26.77-1.83.31-.25-.19-.33-.42-.58-.49-.7-.2-.49,1.06.06,1.08.3.01.42-.26.68-.28.15,0,.34.05.25.23-.03.07-.42.2-.52.25-.38.2-.48.41-.77.64-.14.11-.29.09-.32.3,0,.06-.32,1.19.38,2.39.2.36.42.82.58.86.12.03.22,0,.31.06s.09.3.14.35c.03.03.15,0,.22.06.06.05.15.23.21.29.22.22.55-.06.88.24.45.47.21,1.68-.68,2.11-.22-.23.18-.63.18-.63-.52.11-.6.63-1.03.9-.08.05-.16.09-.25.11s-.19.04-.28.03-.19-.03-.27-.07c-.05-.03-.09-.06-.13-.1-.03-.03-.07-.07-.08-.12-.02-.06,0-.13.05-.17.05-.06.13-.1.19-.14.05-.03.1-.06.14-.09.4-.31.18-.85-.19-1.07-.83-.49-2.24.1-2.25,1.14v.25c-.22-.3-.08-.69-.08-.69,0,0-.3.02-.48-.13s-.21-.51-.11-.53c-.02.57.75.6.79.29,0-.11-.15-.08-.13-.22s.45-.08.78-.23c1.19-.52,1.44-1.71.91-2.84-.57-1.23-1.57-1.39-2.75-.87-.66.29-1.14.69-1.13,1.45.02.44.2.51.2.51,0,0-.1-.2-.07-.56.1-.64.57-.96,1.25-.91.17.02.34.06.32.16-.1-.02-.35-.04-.38.07s.11.13.19.15c.5.14.82.11,1.01.54.2.48-.2.67-.24,1.06-.02.15.15.16.24.08.21-.18.36-.63.32-1.26.12.15.1.53.12.56.05-.07.07.12.07.17.03.27-.13.64-.38.79-.34.2-.76.19-.8.11-.05-.16.15-.37.21-.52.25-.62-.19-1.25-.87-.95-.59.25-1.1,1.27-1.14,1.88-.04.58.21,1.1.57,1.54.12.15.38.36.47.49.02.03.04.06.03.11-.53-.2-1,.34-1.05.83-.1,1.01.89,1.46,1.76,1.42.2-.01.43-.08.62-.04,0,0,.14.01.14.07s-.1.07-.1.07c-.46.06-.96.06-1.41-.05-.93-.23-1.61-1.42-.85-2.16.12-.12.38-.25.2-.38-.12-.09-.34-.17-.49-.26-.25-.16-.53-.4-.7-.65-.4-.56-.53-1.74.07-2.19.3-.25-.04.71.43-.16-.57-.61-.14-1.72.36-2,.41-.23.57-.05.93-.07.26,0,.42-.28.71-.15-.02-.15-.2-.33-.13-.53s1.59-.43,1.49-.23c-.11.22-1.14.18-1.12.35.22.09.61.15.83.05.24-.11.65-.65.36-.88-.21-.17-1.16-.28-.82-1.22.1-.23.39-.24.47-.09s-.19.15-.21.36c-.08.46.22.47.47.36.25-.11.16-.21.05-.35s-.2-.66-.1-.78c.05-.07.17-.04.22,0,.1.1.02.52.22.68.06.05.19.1.22,0-.16-.18-.34-.4-.13-.81.04-.07.14-.13.22-.1.14.06,0,.26,0,.26-.19.31.25.57.28.37.03-.22-.03-.5,0-.73.06-.55.91-1.23,1.44-.95.07.04.28.22.21.28s-.11-.02-.25-.04c-.34-.06-.24.56.11.57.43,0,.35-.51.35-.51.18-.01.32.16.33.35.01.09-.02.28-.02.28.52-.36.29-.68.17-.86-.44-.66,1.86-.24,2.16.23.35.44.07,1.23.49,1.24.34,0,.47-.73.75-.87.21-.11.48-.1.69.02.15.09.17.24.38.26.12.01.41-.02.49-.12.09-.12-.03-.34.23-.46.48-.21,1.54.26,1.29.81-.04.11-.14.13-.14.13,0,0,.04-.1-.06-.23-.14-.18-.53-.26-.69-.07,1.11.55.51,1.63,1.08,1.68.38.04.74-.55.45-.8-.1-.08-.23-.06-.26.01s.08.12.08.12ZM13.09,1.86s-.22-.11-.28-.08c-.17.06,0,.47.24.37.1-.04.12-.21.04-.28h0Z"/>
      <path d="M5.35,17c.08.06.03.65.42,1.13s.55.42.6.56c.06.22-.29.05-.37,0-.4-.24-.64-.83-.67-1.14s-.04-.52.01-.55Z"/>
      <path d="M4.83,4.9c.02-.05.27.03.35.07.28.12.53.4.52.72,0,.35-.38-.09-.37-.21,0-.07.07-.12.02-.18-.02-.03-.26-.2-.31-.23-.25-.17-.57-.12-.62-.16-.02-.02-.02-.03,0-.04.14-.02.39.03.39.03Z"/>
      <path d="M3.4,7.87s.05.03.07.06c.02.03.23.37.23.39.03.13-.08.28-.21.23-.15-.05-.21-.56-.1-.68Z"/>
      <path d="M9.64,8.23c.44.44.03,1.07-.04,1.07-.28-.05.12-.59.04-1.07Z"/>
      <path d="M11.8,22.49c-.02-.06,1.25-.13,1.01.12-.03.01.64.09.45.16s-1.14.02-.87-.2c.11-.13-.57-.02-.59-.08Z"/>
      <path d="M20.19,22.57h.3c-.05-.13-.44-.15-.54-.18-.05-.02-.21-.21-.27-.24-.24-.1-.53-.11-.79-.24-1.75-.82-2.19-2.62-2.57-4.37-.31-1.42-.79-6.6-.82-7.1-.08-.66.8.02.79-.67,0-.14-.05-.63-.3-2.22,0-.19,1.14-1.42,1.28-1.61.13-.18.04-.22.32-.21.17,0,.34.04.51.02.15-.01,1.52-.16,1.44-.37s-.5.04-.53-.02c-.03-.05.08-.06.2-.16.22-.17.35-.37.37-.42.04-.13-.14-.14-.23-.09-.03-.02.38-.34.1-.34-.18,0-.48.42-.67.41.17-.09.52-.39.36-.44-.17-.06-.42.2-.56.28-.21.11-.56.14-.79.1-.03,0-.06-.02-.05-.05.17-.17.43-.12.64-.2.1-.04.31-.18.23-.31-.12-.12-.22.05-.32.06-.14.02-.21-.07-.35-.04-.1.03-.19.16-.28.18-.09.02-.2-.02-.3.04-.04.03-.2.22-.23.27-.07.09-.08.22-.14.29-.04.04-.22.22-.27.26-.25.24-1.41,1.13-1.43,1.14,0,0-.17-.17-.31-.15-.14.02-.41.39-.47.45-.06.07-.32-.03-.42.09s-.13.23-.21.28c-.08.05-.29,0-.41.07-.12.07-.15.27-.21.31,0,0-.17.24-.52.27-.4.04-.63-.15-.75-.29-.36-.46-.34-1.51-.7-2.22-.34-.77.25-.33.28-.4.04-.1-.08-.27-.32-.32-.36-.08-.94-.09-1.39.21-.58.38-1.03,2.35-.88,2.78.18.41.4.13.58.56.04.06.06.13.2.21.12.07.41.07.45.11.16.18.11.47-.14.69.15.79-.39.48-.52,1.44-.31-.4.1-.87.1-.87-.08,0-.48.16-.7.73-.35.79-1.31.78-1.95.71-.59-.11-.63-.53-.78-.38.19.93,3.31.87,2.03,2.92-.35.8-1.84,2.01-1.43,2.97.21.48.75.18,1.09.43.23.17.31.6.18.84-.06.11-.3-.06-.18.08.19.2.29.25.66.35.85.25,1.16,1.2.89,1.99-.12.36-.42.53-.26.96.05.14.22.33.39.32.17,0,.04-.29.19-.39.19-.12.38.18.41.34.04.25-.14.55.12.76.05.04.27.25.54.38.5.24.89.31.91.28s-.34-.13-.56-.35c-.07-.06-.17-.19-.21-.23.1-.14.32.06.58,0,.13-.04.25-.12.37-.19.58-.37,1.13.08,1.66.4.28.17.74.29.79.26.09-.06-.29-.18-.48-.29-.14-.08-.11-.16-.05-.18.23-.05.74.19.96.38.39.34.99.46,1.46.26.27-.14.59-.06.73-.02,0-.3-.56-.2-.58-.43.36-.19.7-.17.81-.16.68.03.64.24,1.5.29.76.03.8-.03,1.06-.02.11,0-.25.06-.25.16.37,0,.79,0,.82-.05,0-.1-.13-.13-.13-.13ZM11.31,21.99c-.16-.09-.46.06-.46.06,0,0-.11.04-.19.14-.33-.1-.2-.43-.2-.43,0,0,.16-.73-.21-1.04-.3-.25-.54-.06-.54-.06,0,0,.59-.96-.21-2.26,0,0,.4-1.65.46-5.47.03-1.07.08-2.3.07.18,0,2.06.02,4.83.38,6.47.41,1.97,1.51,2.7.88,2.42Z"/>
      <path d="M8.44,18.42s.47-.12.57.49-.08-.08-.11.13c-.03.15.31.22.36.64.01.45-.19.7-.25.67s.28-.53-.1-.86c-.25-.21-.35-.37-.35-.37,0,0-.29-.47.01-.4s-.13-.3-.13-.3Z"/>
      <path d="M3.2,4.36s-.3-.07-.58.04c-.44.17-.6.51-.67.47,0,0-.26-.27.25-.58.45-.29.99-.06,1,.07Z"/>
      <path class="cls-1" d="M9.68,6.19s0,.05-.01.07c-.01.03-.03.04-.05.04-.02,0-.06,0-.07-.03,0-.02-.01-.06-.01-.08,0-.03.01-.07.02-.09.01-.02.04-.03.06-.03.02,0,.05,0,.07.04,0,.02,0,.05,0,.07Z"/>
      <path class="cls-1" d="M10.39,6.23c0,.07-.03.13-.08.13-.02,0-.06,0-.07-.03-.01-.02-.01-.08-.01-.11,0-.07.04-.12.08-.12.02,0,.05,0,.06.03.02.02.01.06.01.11Z"/>
    </g>
  </g>
</svg>