<?xml version="1.0" encoding="UTF-8"?>
<svg id="Layer_2" data-name="Layer 2" xmlns="http://www.w3.org/2000/svg" viewBox="0 0 127.89 15.52">
  <g id="Layer_1-2" data-name="Layer 1">
    <g>
      <path d="M4.18,15.22H0s0-10.22,0-10.22h3.88s3.97,4.48,3.97,4.48l4.05-4.48h3.74s0,10.22,0,10.22h-4.16s0-3.95,0-3.95l-3.58,3.37h-.3s-3.42-3.33-3.42-3.33v3.91Z"/>
      <path d="M22.28,15.51c-2.93,0-4.39-1.73-4.39-4.65v-5.85s4.2,0,4.2,0v4.71c0,1.59.48,2.29,1.99,2.29,1.34,0,1.99-.79,1.99-2.4v-4.6s4.27,0,4.27,0v10.52s-4.02-2.68-4.02-2.68c-.56,1.6-1.82,2.66-4.04,2.66Z"/>
      <path d="M32.58,2.18h4.25s0,13.05,0,13.05h-4.25s0-13.05,0-13.05Z"/>
      <path d="M46.11,15.22c-1.27,0-2.26-.16-2.96-.51-1.41-.69-1.9-2.12-1.9-4.55v-1.69h-2.38s0-3.26,0-3.26c.69-.02,1.29-.05,1.76-.18.62-.16.86-.44,1.08-1.02.19-.51.23-1.25.25-1.83h3.26s0,2.82,0,2.82h3.52s0,3.47,0,3.47h-3.52v1.3c0,.56.05,1,.14,1.29.21.58.49.72,1.62.72h1.76s0,3.44,0,3.44h-2.63Z"/>
      <path d="M55.47,5v10.22s-4.35,0-4.35,0V5s4.35,0,4.35,0Z"/>
      <path d="M57.04,5h4.57s2.64,5.66,2.64,5.66l2.75-5.66h4.57s-5.25,10.22-5.25,10.22h-4.27s-5.01-10.22-5.01-10.22Z"/>
      <path d="M77.87,15.36c-2.49,0-4.11-.51-5.12-1.43-1.01-.92-1.4-2.15-1.4-3.59,0-1.06.26-1.95.73-2.8,1.01-1.67,2.99-2.7,6.1-2.7,1.5,0,2.73.22,3.69.68,1.95.89,2.87,2.51,2.87,4.59v.97s-9.37,0-9.37,0c.26.99,1.08,1.47,2.77,1.47,1.28,0,1.81-.26,2.13-.68h4.39c-.85,2.48-3.01,3.48-6.78,3.48ZM75.42,9.09h5.22c-.26-1.02-1.04-1.42-2.53-1.42s-2.37.5-2.7,1.42Z"/>
      <path d="M97.39,11.77h4.35c.29.72.99.97,2.68.97,1.42,0,1.86-.31,1.86-.73,0-.14-.09-.26-.24-.34-.29-.19-1.13-.27-2.89-.34-1.33-.07-2.36-.2-3.16-.41-1.61-.41-2.25-1.2-2.25-2.54,0-2.17,1.91-3.53,5.77-3.53s5.82,1.04,6.61,3.45h-4.15c-.27-.73-1.21-.96-2.56-.96-1.43,0-1.81.31-1.81.7,0,.14.09.27.27.36.36.19,1.2.29,2.75.36,1.42.07,2.53.2,3.35.43,1.62.43,2.22,1.23,2.22,2.58,0,.72-.22,1.33-.65,1.88-.85,1.08-2.61,1.72-5.52,1.72-3.76,0-6.15-.97-6.64-3.59Z"/>
      <path d="M118.2,15.36c-2.49,0-4.11-.51-5.12-1.43-1.01-.92-1.4-2.15-1.4-3.59,0-1.06.26-1.95.73-2.8,1.01-1.67,2.99-2.7,6.1-2.7,1.5,0,2.73.22,3.69.68,1.95.89,2.87,2.51,2.87,4.59v.97s-9.37,0-9.37,0c.26.99,1.08,1.47,2.77,1.47,1.28,0,1.81-.26,2.13-.68h4.39c-.85,2.48-3.01,3.48-6.78,3.48ZM115.76,9.09h5.22c-.26-1.02-1.04-1.42-2.53-1.42s-2.37.5-2.7,1.42Z"/>
      <circle cx="53.29" cy="2.18" r="2.18"/>
      <path d="M86.77,4.7l4.09,3.24c.41-2.08,1.6-3.1,3.95-3.1h1.11s0,4.21,0,4.21h-1.78c-.81,0-1.41.11-1.83.26-.85.37-1.11,1.2-1.11,2.68v3.23s-4.42,0-4.42,0V4.7Z"/>
      <g>
        <path d="M126.3,3.99h-.31s0-.94,0-.94h.52c.12,0,.21.01.28.03.14.04.2.13.2.27,0,.13-.06.2-.19.24.13.03.17.1.17.26v.06s0,.05.03.07h-.33s-.03-.04-.03-.06v-.07c0-.1-.04-.13-.16-.13h-.19v.27ZM126.3,3.49h.21c.1,0,.16-.02.16-.09h0c0-.08-.05-.1-.16-.1h-.21v.19Z"/>
        <path d="M126.48,4.97c-.78,0-1.41-.63-1.41-1.41s.63-1.41,1.41-1.41,1.41.63,1.41,1.41-.63,1.41-1.41,1.41ZM126.48,2.59c-.53,0-.97.43-.97.97s.43.97.97.97.97-.43.97-.97-.43-.97-.97-.97Z"/>
      </g>
    </g>
  </g>
</svg>